<?xml version="1.0" encoding="iso-8859-1"?>
<!-- Uploaded to: SVG Repo, www.svgrepo.com, Generator: SVG Repo Mixer Tools -->
<svg fill="#000000" height="800px" width="800px" version="1.1" id="Layer_1" xmlns="http://www.w3.org/2000/svg" xmlns:xlink="http://www.w3.org/1999/xlink" 
	 viewBox="0 0 512.001 512.001" xml:space="preserve">
<g>
	<g>
		<path d="M507.031,363.823c-0.873-4.359-5.109-7.184-9.476-6.311l-51.044,10.233l-22.385-111.659
			c-0.873-4.359-5.11-7.185-9.476-6.311c-4.359,0.874-7.184,5.117-6.311,9.476l22.385,111.658l-287.324,57.6l-40.722-203.124
			l51.045-10.234c6.177-1.239,8.574-9.126,4.107-13.588l-18.106-18.09l9.734-23.672c2.399-5.836-2.847-12.198-9.028-10.955
			l-51.044,10.233l-3.586-17.891l287.324-57.601l3.587,17.892l-51.045,10.234c-6.177,1.239-8.574,9.126-4.107,13.588l18.106,18.09
			l-9.734,23.672c-2.398,5.834,2.845,12.197,9.029,10.955l51.044-10.233l11.22,55.969c0.873,4.359,5.11,7.184,9.476,6.311
			c4.359-0.874,7.184-5.117,6.311-9.476L387.328,72.528c-0.86-4.293-5.177-7.178-9.476-6.311L82.635,125.401L60.586,15.417
			c-0.873-4.359-5.108-7.183-9.476-6.311L9.681,17.413c-4.359,0.874-7.184,5.117-6.311,9.476c0.873,4.359,5.107,7.183,9.476,6.311
			l33.534-6.723l82.813,413.094c0.858,4.289,5.178,7.177,9.476,6.311l158.754-31.826c-9.131,3.842-16.945,10.268-22.563,18.703
			c-7.548,11.335-10.232,24.932-7.555,38.285v-0.001c2.676,13.353,10.394,24.867,21.729,32.416
			c11.214,7.469,25.074,10.203,38.285,7.555c27.565-5.526,45.495-32.448,39.969-60.014c-4.839-24.133-26.08-40.88-49.791-40.968
			l183.22-36.731C505.079,372.426,507.906,368.184,507.031,363.823z M379.875,117.267l6.962,34.73l-36.295,7.277l6.055-14.723
			c1.236-3.007,0.543-6.461-1.756-8.757l-11.261-11.251L379.875,117.267z M92.552,174.867l36.295-7.276l-6.055,14.723
			c-1.235,3.007-0.543,6.461,1.756,8.757l11.261,11.251l-36.295,7.276L92.552,174.867z M351.506,454.164
			c3.779,18.861-8.487,37.281-27.349,41.063c-9.139,1.828-18.44-0.005-26.194-5.17c-7.756-5.165-13.037-13.041-14.868-22.178
			c0-0.001,0-0.001,0-0.001c-1.831-9.137,0.004-18.439,5.17-26.194c6.425-9.648,17.447-15.552,29.046-15.552
			C333.585,426.131,348.186,437.608,351.506,454.164z"/>
	</g>
</g>
<g>
	<g>
		<path d="M342.032,456.061c-1.325-6.606-5.143-12.301-10.75-16.036c-5.607-3.734-12.33-5.061-18.94-3.738
			c-13.638,2.733-22.508,16.052-19.775,29.69v0.001c1.325,6.606,5.143,12.301,10.751,16.036c5.547,3.695,12.404,5.046,18.94,3.737
			c6.607-1.324,12.302-5.142,16.037-10.749C342.029,469.394,343.357,462.668,342.032,456.061z M324.894,466.078
			c-2.755,4.136-8.51,5.294-12.651,2.535c-2.029-1.35-3.409-3.41-3.889-5.799c-0.989-4.934,2.22-9.752,7.153-10.741
			c4.88-0.972,9.762,2.278,10.739,7.153C326.725,461.617,326.245,464.05,324.894,466.078z"/>
	</g>
</g>
<g>
	<g>
		<path d="M185.314,244.399c-0.874-4.359-5.106-7.183-9.476-6.311l-42.099,8.44c-4.359,0.874-7.184,5.117-6.311,9.476l13.503,67.357
			c0.885,4.416,5.391,7.293,9.771,6.246c4.154-0.993,6.855-5.225,6.015-9.412l-5.169-25.785l17.366-3.481
			c4.36-0.873,7.185-5.117,6.312-9.475c-0.873-4.36-5.116-7.182-9.475-6.312l-17.367,3.481l-3.587-17.893l34.206-6.857
			C183.364,253.001,186.188,248.758,185.314,244.399z"/>
	</g>
</g>
<g>
	<g>
		<path d="M263.646,293.834L243.64,275.95l9.473-1.9c4.359-0.874,7.184-5.117,6.311-9.476l-6.752-33.678
			c-0.873-4.359-5.107-7.182-9.476-6.311l-42.099,8.439c-4.295,0.86-7.174,5.176-6.311,9.476l13.503,67.357
			c0.885,4.416,5.391,7.293,9.771,6.246c4.154-0.993,6.855-5.225,6.015-9.412l-11.92-59.463l26.311-5.275l3.587,17.892
			l-17.367,3.481c-6.371,1.277-8.637,9.555-3.782,13.895l32.01,28.615c3.315,2.965,8.405,2.678,11.367-0.636
			C267.247,301.887,266.962,296.798,263.646,293.834z"/>
	</g>
</g>
<g>
	<g>
		<path d="M333.534,284.75c-0.873-4.359-5.109-7.184-9.476-6.311l-25.784,5.168l-3.587-17.892l17.366-3.481
			c4.36-0.873,7.185-5.117,6.312-9.475c-0.873-4.36-5.114-7.186-9.475-6.312l-17.367,3.481l-3.587-17.892l25.785-5.17
			c4.359-0.874,7.184-5.117,6.311-9.476c-0.873-4.359-5.107-7.184-9.476-6.311l-33.679,6.752c-4.295,0.86-7.174,5.176-6.311,9.476
			l13.503,67.358c0.862,4.302,5.174,7.171,9.476,6.311l33.679-6.752C331.581,293.352,334.407,289.11,333.534,284.75z"/>
	</g>
</g>
<g>
	<g>
		<path d="M392.471,272.937c-0.873-4.36-5.117-7.184-9.475-6.312l-25.784,5.167l-3.587-17.892l17.365-3.481
			c4.36-0.874,7.184-5.117,6.311-9.476c-0.873-4.359-5.108-7.183-9.476-6.311l-17.365,3.481l-3.587-17.892l25.784-5.169
			c4.359-0.874,7.184-5.117,6.311-9.476c-0.873-4.359-5.106-7.182-9.476-6.311l-33.678,6.752c-4.359,0.874-7.184,5.117-6.311,9.476
			l13.503,67.357c0.862,4.3,5.174,7.173,9.475,6.311l33.678-6.751C390.519,281.538,393.345,277.295,392.471,272.937z"/>
	</g>
</g>
<g>
	<g>
		<path d="M313.258,139.929l-3.376-16.84c-0.86-4.293-5.176-7.18-9.476-6.312L165.69,143.784c-4.359,0.874-7.184,5.117-6.311,9.475
			l3.376,16.841c2.225,11.104,8.643,20.677,18.07,26.954c7.045,4.692,15.139,7.123,23.414,7.123c2.797,0,5.616-0.278,8.423-0.84
			l67.356-13.503c11.106-2.225,20.678-8.643,26.955-18.069C313.252,162.339,315.484,151.033,313.258,139.929z M293.575,162.839
			c-3.894,5.846-9.832,9.826-16.72,11.207l-67.358,13.504c-6.888,1.381-13.9-0.003-19.746-3.896
			c-5.847-3.894-9.827-9.831-11.207-16.718l-1.794-8.947l118.929-23.843l1.794,8.947
			C298.853,149.98,297.469,156.992,293.575,162.839z"/>
	</g>
</g>
<g>
	<g>
		<path d="M170.222,387.555l-5.064-25.259c-0.873-4.359-5.106-7.185-9.476-6.311c-4.359,0.874-7.184,5.117-6.311,9.476l5.064,25.259
			c0.885,4.416,5.391,7.293,9.771,6.246C168.361,395.974,171.061,391.742,170.222,387.555z"/>
	</g>
</g>
<g>
	<g>
		<path d="M203.901,380.804l-5.064-25.259c-0.873-4.359-5.107-7.181-9.476-6.311c-4.359,0.874-7.184,5.117-6.311,9.476l5.064,25.26
			c0.885,4.416,5.391,7.293,9.771,6.246C202.04,389.222,204.741,384.99,203.901,380.804z"/>
	</g>
</g>
<g>
	<g>
		<path d="M246,372.362l-5.064-25.258c-0.874-4.358-5.108-7.182-9.476-6.311c-4.36,0.874-7.184,5.117-6.311,9.476l5.064,25.258
			c0.885,4.416,5.391,7.293,9.771,6.246C244.14,380.781,246.84,376.549,246,372.362z"/>
	</g>
</g>
<g>
	<g>
		<path d="M288.098,363.923l-5.064-25.258c-0.873-4.359-5.109-7.182-9.476-6.311c-4.36,0.874-7.184,5.117-6.311,9.476l5.064,25.258
			c0.884,4.416,5.391,7.293,9.771,6.246C286.238,372.342,288.938,368.11,288.098,363.923z"/>
	</g>
</g>
<g>
	<g>
		<path d="M321.777,357.173l-5.063-25.258c-0.873-4.36-5.114-7.185-9.475-6.312c-4.36,0.873-7.185,5.117-6.312,9.475l5.063,25.258
			c0.884,4.416,5.388,7.294,9.77,6.247C319.915,365.59,322.616,361.359,321.777,357.173z"/>
	</g>
</g>
<g>
	<g>
		<path d="M347.037,352.109l-5.064-25.26c-0.873-4.359-5.108-7.181-9.476-6.311c-4.359,0.874-7.184,5.117-6.311,9.476l5.064,25.259
			c0.885,4.416,5.391,7.293,9.771,6.246C345.176,360.528,347.876,356.296,347.037,352.109z"/>
	</g>
</g>
<g>
	<g>
		<path d="M372.295,347.045l-5.063-25.26c-0.873-4.359-5.117-7.183-9.475-6.312c-4.36,0.873-7.185,5.117-6.312,9.475l5.063,25.26
			c0.884,4.416,5.388,7.294,9.77,6.247C370.434,355.463,373.135,351.231,372.295,347.045z"/>
	</g>
</g>
<g>
	<g>
		<path d="M405.975,340.293l-5.064-25.259c-0.873-4.359-5.107-7.184-9.476-6.311c-4.359,0.874-7.184,5.117-6.311,9.476l5.064,25.259
			c0.884,4.416,5.391,7.293,9.771,6.246C404.113,348.712,406.814,344.479,405.975,340.293z"/>
	</g>
</g>
<g>
	<g>
		<path d="M200.184,34.349c-9.601,0-17.711-12.044-17.711-26.298c0-4.447-3.603-8.051-8.051-8.051s-8.051,3.603-8.051,8.051
			c0,14.255-8.111,26.298-17.711,26.298c-4.447,0-8.051,3.603-8.051,8.051s3.603,8.051,8.051,8.051
			c9.601,0,17.711,12.044,17.711,26.299c0,4.447,3.603,8.051,8.051,8.051s8.051-3.603,8.051-8.051
			c0-14.255,8.111-26.299,17.711-26.299c4.447,0,8.051-3.603,8.051-8.051S204.631,34.349,200.184,34.349z M174.422,49.316
			c-1.758-2.591-3.76-4.916-5.96-6.916c2.199-2,4.201-4.325,5.96-6.916c1.758,2.591,3.76,4.916,5.96,6.916
			C178.182,44.399,176.18,46.724,174.422,49.316z"/>
	</g>
</g>
<g>
	<g>
		<path d="M500.739,197.507c-9.601,0-17.711-12.044-17.711-26.299c0-4.447-3.603-8.051-8.051-8.051s-8.051,3.603-8.051,8.051
			c0,14.255-8.111,26.299-17.711,26.299c-4.447,0-8.051,3.603-8.051,8.051s3.603,8.051,8.051,8.051
			c9.601,0,17.711,12.044,17.711,26.299c0,4.447,3.603,8.051,8.051,8.051s8.051-3.603,8.051-8.051
			c0-14.255,8.111-26.299,17.711-26.299c4.447,0,8.051-3.603,8.051-8.051S505.186,197.507,500.739,197.507z M474.977,212.474
			c-1.758-2.591-3.76-4.916-5.96-6.916c2.199-2,4.201-4.325,5.96-6.916c1.758,2.591,3.76,4.916,5.96,6.916
			C478.737,207.558,476.735,209.883,474.977,212.474z"/>
	</g>
</g>
<g>
	<g>
		<path d="M62.788,360.665c-9.601,0-17.711-12.044-17.711-26.299c0-4.447-3.603-8.051-8.051-8.051s-8.051,3.603-8.051,8.051
			c0,14.255-8.111,26.299-17.711,26.299c-4.447,0-8.051,3.603-8.051,8.051s3.603,8.051,8.051,8.051
			c9.601,0,17.711,12.044,17.711,26.299c0,4.447,3.603,8.051,8.051,8.051s8.051-3.603,8.051-8.051
			c0-14.255,8.111-26.299,17.711-26.299c4.447,0,8.051-3.603,8.051-8.051S67.235,360.665,62.788,360.665z M37.026,375.632
			c-1.758-2.591-3.76-4.916-5.96-6.916c2.199-2,4.201-4.325,5.96-6.916c1.758,2.591,3.76,4.916,5.96,6.916
			C40.786,370.716,38.784,373.041,37.026,375.632z"/>
	</g>
</g>
</svg>